<mxfile host="Electron" agent="Mozilla/5.0 (Windows NT 10.0; Win64; x64) AppleWebKit/537.36 (KHTML, like Gecko) draw.io/26.0.9 Chrome/128.0.6613.186 Electron/32.2.5 Safari/537.36" version="26.0.9">
  <diagram name="Page-1" id="y_FN8ScD8247vrjKScGm">
    <mxGraphModel dx="819" dy="482" grid="1" gridSize="10" guides="1" tooltips="1" connect="1" arrows="1" fold="1" page="1" pageScale="1" pageWidth="850" pageHeight="1100" math="1" shadow="0">
      <root>
        <mxCell id="0" />
        <mxCell id="1" parent="0" />
        <mxCell id="_mQtixCUPEzxBjJu1UFa-1" value="$$R_1,\ R_2,\ \ldots,\ R_n$$" style="rounded=0;whiteSpace=wrap;html=1;fillColor=#dae8fc;strokeColor=#6c8ebf;" vertex="1" parent="1">
          <mxGeometry x="200" y="240" width="130" height="40" as="geometry" />
        </mxCell>
        <mxCell id="_mQtixCUPEzxBjJu1UFa-2" value="$$M&#39;_1,\ M&#39;_2,\ \ldots,\ M&#39;_n$$" style="rounded=0;whiteSpace=wrap;html=1;fillColor=#fff2cc;strokeColor=#d6b656;" vertex="1" parent="1">
          <mxGeometry x="200" y="290" width="130" height="40" as="geometry" />
        </mxCell>
        <mxCell id="_mQtixCUPEzxBjJu1UFa-3" value="$$V&#39;_1,\ V&#39;_2,\ \ldots,\ V&#39;_n$$" style="rounded=0;whiteSpace=wrap;html=1;fillColor=#e1d5e7;strokeColor=#9673a6;" vertex="1" parent="1">
          <mxGeometry x="200" y="340" width="130" height="40" as="geometry" />
        </mxCell>
        <mxCell id="_mQtixCUPEzxBjJu1UFa-4" value="" style="shape=curlyBracket;whiteSpace=wrap;html=1;rounded=1;labelPosition=left;verticalLabelPosition=middle;align=right;verticalAlign=middle;" vertex="1" parent="1">
          <mxGeometry x="160" y="240" width="20" height="140" as="geometry" />
        </mxCell>
        <mxCell id="_mQtixCUPEzxBjJu1UFa-5" value="$$X_t$$" style="text;html=1;align=center;verticalAlign=middle;whiteSpace=wrap;rounded=0;" vertex="1" parent="1">
          <mxGeometry x="110" y="295" width="60" height="30" as="geometry" />
        </mxCell>
        <mxCell id="_mQtixCUPEzxBjJu1UFa-6" value="&lt;font style=&quot;font-size: 18px;&quot;&gt;&lt;b&gt;Ecoder&lt;/b&gt;&lt;/font&gt;" style="shape=trapezoid;perimeter=trapezoidPerimeter;whiteSpace=wrap;html=1;fixedSize=1;direction=south;size=50;fillColor=#f5f5f5;strokeColor=#666666;fontColor=#333333;" vertex="1" parent="1">
          <mxGeometry x="340" y="240" width="120" height="140" as="geometry" />
        </mxCell>
        <mxCell id="_mQtixCUPEzxBjJu1UFa-7" value="&lt;font style=&quot;font-size: 14px;&quot;&gt;$$\mathbf{L}$$&lt;/font&gt;" style="text;html=1;align=center;verticalAlign=middle;whiteSpace=wrap;rounded=0;" vertex="1" parent="1">
          <mxGeometry x="460" y="290" width="50" height="35" as="geometry" />
        </mxCell>
        <mxCell id="_mQtixCUPEzxBjJu1UFa-8" value="&lt;font style=&quot;font-size: 18px;&quot;&gt;&lt;b&gt;Decoder&lt;/b&gt;&lt;/font&gt;" style="rounded=0;whiteSpace=wrap;html=1;fillColor=#f5f5f5;fontColor=#333333;strokeColor=#666666;" vertex="1" parent="1">
          <mxGeometry x="510" y="290" width="120" height="40" as="geometry" />
        </mxCell>
        <mxCell id="_mQtixCUPEzxBjJu1UFa-9" value="$$\hat{R}_1,\ \hat{R}_2,\ \ldots,\ \hat{R}_n$$" style="rounded=0;whiteSpace=wrap;html=1;fillColor=#dae8fc;strokeColor=#6c8ebf;" vertex="1" parent="1">
          <mxGeometry x="650" y="290" width="130" height="40" as="geometry" />
        </mxCell>
      </root>
    </mxGraphModel>
  </diagram>
</mxfile>
